<?xml version="1.0" encoding="UTF-8" standalone="no"?>
<!-- Created with Inkscape (http://www.inkscape.org/) -->

<svg
   width="127.96427mm"
   height="74.027603mm"
   viewBox="0 0 127.96427 74.027603"
   version="1.1"
   id="svg1"
   xmlns="http://www.w3.org/2000/svg"
   xmlns:svg="http://www.w3.org/2000/svg">
  <defs
     id="defs1" />
  <g
     id="layer1"
     transform="translate(-18.520831,-68.527082)">
    <path
       id="text60"
       style="font-weight:bold;font-size:114.511px;font-family:Futura;-inkscape-font-specification:'Futura Bold';stroke-width:5.52594"
       d="m 414.31167,172.50493 v 86.34145 h 33.20683 c 5.95457,0 11.49007,-1.1839 16.60489,-3.55046 5.19116,-2.36656 9.69577,-5.53367 13.5128,-9.50338 3.89337,-3.96971 6.90777,-8.55118 9.04531,-13.74234 2.21388,-5.2675 3.32156,-10.72607 3.32156,-16.37527 0,-5.72555 -1.10768,-11.18266 -3.32156,-16.37382 -2.21388,-5.2675 -5.26668,-9.84897 -9.16005,-13.74234 -3.81703,-3.96971 -8.32164,-7.13682 -13.5128,-9.50338 -5.11482,-2.36656 -10.61193,-3.55046 -16.49015,-3.55046 z m 110.9606,0 -32.86556,86.34145 h 23.93352 l 5.15299,-15.00119 h 32.06238 l 5.15298,15.00119 h 23.93352 l -32.86409,-86.34145 z m 67.21832,0 v 86.34145 h 22.44337 v -33.20859 l 21.41365,33.20859 h 27.94058 l -27.13887,-35.3835 c 6.18359,-1.45047 10.84033,-4.19993 13.97029,-8.24598 3.2063,-4.1224 4.81024,-9.46574 4.81024,-16.03103 0,-3.66435 -0.61145,-7.09936 -1.83289,-10.30566 -1.14512,-3.2063 -2.90117,-6.03064 -5.26773,-8.47354 -2.29022,-2.4429 -5.22929,-4.3527 -8.8173,-5.72683 -3.588,-1.45046 -7.78689,-2.17491 -12.59636,-2.17491 z m 81.18713,0 v 86.34145 h 22.44484 v -37.44463 l 29.19978,37.44463 h 29.0865 l -37.44485,-45.4616 34.23802,-40.87985 h -27.7111 l -27.36835,35.61251 v -35.61251 z m -58.74376,17.29134 h 4.23654 c 4.42775,0 7.82615,0.916 10.19271,2.74817 2.36655,1.83218 3.54957,4.46641 3.54957,7.90174 0,3.43532 -1.18302,6.0681 -3.54957,7.90028 -2.36656,1.83217 -5.76496,2.74817 -10.19271,2.74817 h -4.23654 z m -178.17892,1.71688 h 5.15298 c 3.81703,0 7.25236,0.61066 10.30598,1.83212 3.05362,1.22144 5.61165,2.90224 7.67285,5.03978 2.13753,2.13754 3.77839,4.69398 4.9235,7.67126 1.14511,2.97728 1.71816,6.18329 1.71816,9.61862 0,3.51167 -0.57305,6.75656 -1.71816,9.73385 -1.06877,2.90094 -2.6727,5.41995 -4.81023,7.55748 -2.0612,2.13754 -4.61776,3.81687 -7.67138,5.03832 -3.05362,1.22145 -6.52735,1.83212 -10.42072,1.83212 h -5.15298 z m 100.76937,6.52765 10.07796,28.74207 h -20.15446 z m -21.02678,76.57842 c -6.74054,0 -12.93158,1.13611 -18.57312,3.4075 -5.56827,2.19811 -10.36721,5.27546 -14.39688,9.23206 -4.02967,3.95661 -7.18004,8.60949 -9.45131,13.95823 -2.27127,5.27547 -3.40689,10.99074 -3.40689,17.14547 0,6.15471 1.13562,11.90612 3.40689,17.25487 2.27127,5.27546 5.42164,9.89221 9.45131,13.84882 4.02967,3.9566 8.82861,7.07008 14.39688,9.34146 5.64154,2.19812 11.83258,3.29665 18.57312,3.29665 6.66728,0 12.82125,-1.09853 18.46279,-3.29665 5.64154,-2.27138 10.47754,-5.38486 14.50721,-9.34146 4.10294,-3.95661 7.29037,-8.57336 9.56164,-13.84882 2.27127,-5.34875 3.40688,-11.10016 3.40688,-17.25487 0,-6.15473 -1.13561,-11.87 -3.40688,-17.14547 -2.27127,-5.34874 -5.4587,-10.00162 -9.56164,-13.95823 -4.02967,-3.9566 -8.86567,-7.03395 -14.50721,-9.23206 -5.64154,-2.27139 -11.79551,-3.4075 -18.46279,-3.4075 z m -102.31688,2.30911 v 82.8683 h 21.54016 v -32.53176 h 23.62901 v -18.24532 h -23.62901 v -13.84736 h 25.93705 v -18.24386 z m 161.88294,0 v 82.8683 h 21.54017 V 327.9242 l 20.55163,31.87243 h 26.81525 l -26.0459,-33.96127 c 5.93461,-1.39214 10.40442,-4.03008 13.40836,-7.91341 3.0772,-3.9566 4.61459,-9.08502 4.61459,-15.38628 0,-3.51698 -0.5856,-6.81403 -1.75787,-9.89139 -1.099,-3.07736 -2.78463,-5.78902 -5.0559,-8.13367 -2.198,-2.34465 -5.01778,-4.17602 -8.46131,-5.4949 -3.44354,-1.39213 -7.47305,-2.08738 -12.08886,-2.08738 z m 88.24951,0 -14.06738,82.8683 h 21.43131 l 7.14328,-47.69924 18.57312,47.69924 h 8.57164 l 19.56311,-47.69924 7.14328,47.69924 h 21.42984 l -14.06738,-82.8683 h -21.31951 l -16.48574,44.18086 -16.59459,-44.18086 z m -66.70934,16.59554 h 4.0659 c 4.24947,0 7.51102,0.87882 9.78229,2.63731 2.27127,1.75849 3.40689,4.28657 3.40689,7.58374 0,3.29717 -1.13562,5.82525 -3.40689,7.58374 -2.27127,1.7585 -5.53282,2.63732 -9.78229,2.63732 h -4.0659 z m -81.10623,1.97798 c 3.15047,0 6.11848,0.5854 8.90262,1.75773 2.8574,1.09906 5.34805,2.67459 7.47279,4.72616 2.198,2.05157 3.91922,4.46979 5.16475,7.25408 1.24554,2.78427 1.8682,5.82548 1.8682,9.12266 0,3.29716 -0.62266,6.33692 -1.8682,9.1212 -1.24553,2.78427 -2.96675,5.2025 -5.16475,7.25407 -2.12474,2.05158 -4.61539,3.66324 -7.47279,4.83557 -2.78414,1.09905 -5.75215,1.64978 -8.90262,1.64978 -3.15047,0 -6.15408,-0.55073 -9.01148,-1.64978 -2.78414,-1.17233 -5.2392,-2.78399 -7.36393,-4.83557 -2.12474,-2.05157 -3.8089,-4.4698 -5.05443,-7.25407 -1.24553,-2.78428 -1.8682,-5.82404 -1.8682,-9.1212 0,-3.29718 0.62267,-6.33839 1.8682,-9.12266 1.24553,-2.78429 2.92969,-5.20251 5.05443,-7.25408 2.12473,-2.05157 4.57979,-3.6271 7.36393,-4.72616 2.8574,-1.17233 5.86101,-1.75773 9.01148,-1.75773 z"
       transform="matrix(0.35129629,0,0,0.3542655,-126.97933,7.4145374)" />
    <g
       id="g379"
       transform="matrix(0.35277777,0,0,0.35277777,-163.05873,44.820986)">
      <g
         id="g378">
        <path
           id="path67"
           style="font-weight:bold;font-size:114.511px;font-family:Futura;-inkscape-font-specification:'Futura Bold';stroke-width:5.52594"
           d="m 414.31167,172.50493 v 86.34145 h 33.20683 c 5.95457,0 11.49007,-1.1839 16.60489,-3.55046 5.19116,-2.36656 9.69577,-5.53367 13.5128,-9.50338 3.89337,-3.96971 6.90777,-8.55118 9.04531,-13.74234 2.21388,-5.2675 3.32156,-10.72607 3.32156,-16.37527 0,-5.72555 -1.10768,-11.18266 -3.32156,-16.37382 -2.21388,-5.2675 -5.26668,-9.84897 -9.16005,-13.74234 -3.81703,-3.96971 -8.32164,-7.13682 -13.5128,-9.50338 -5.11482,-2.36656 -10.61193,-3.55046 -16.49015,-3.55046 z m 110.9606,0 -32.86556,86.34145 h 23.93352 l 5.15299,-15.00119 h 32.06238 l 5.15298,15.00119 h 23.93352 l -32.86409,-86.34145 z m 67.21832,0 v 86.34145 h 22.44337 v -33.20859 l 21.41365,33.20859 h 27.94058 l -27.13887,-35.3835 c 6.18359,-1.45047 10.84033,-4.19993 13.97029,-8.24598 3.2063,-4.1224 4.81024,-9.46574 4.81024,-16.03103 0,-3.66435 -0.61145,-7.09936 -1.83289,-10.30566 -1.14512,-3.2063 -2.90117,-6.03064 -5.26773,-8.47354 -2.29022,-2.4429 -5.22929,-4.3527 -8.8173,-5.72683 -3.588,-1.45046 -7.78689,-2.17491 -12.59636,-2.17491 z m 81.18713,0 v 86.34145 h 22.44484 v -37.44463 l 29.19978,37.44463 h 29.0865 l -37.44485,-45.4616 34.23802,-40.87985 h -27.7111 l -27.36835,35.61251 v -35.61251 z m -58.74376,17.29134 h 4.23654 c 4.42775,0 7.82615,0.916 10.19271,2.74817 2.36655,1.83218 3.54957,4.46641 3.54957,7.90174 0,3.43532 -1.18302,6.0681 -3.54957,7.90028 -2.36656,1.83217 -5.76496,2.74817 -10.19271,2.74817 h -4.23654 z m -178.17892,1.71688 h 5.15298 c 3.81703,0 7.25236,0.61066 10.30598,1.83212 3.05362,1.22144 5.61165,2.90224 7.67285,5.03978 2.13753,2.13754 3.77839,4.69398 4.9235,7.67126 1.14511,2.97728 1.71816,6.18329 1.71816,9.61862 0,3.51167 -0.57305,6.75656 -1.71816,9.73385 -1.06877,2.90094 -2.6727,5.41995 -4.81023,7.55748 -2.0612,2.13754 -4.61776,3.81687 -7.67138,5.03832 -3.05362,1.22145 -6.52735,1.83212 -10.42072,1.83212 h -5.15298 z m 100.76937,6.52765 10.07796,28.74207 h -20.15446 z m -21.02678,76.57842 c -6.74054,0 -12.93158,1.13611 -18.57312,3.4075 -5.56827,2.19811 -10.36721,5.27546 -14.39688,9.23206 -4.02967,3.95661 -7.18004,8.60949 -9.45131,13.95823 -2.27127,5.27547 -3.40689,10.99074 -3.40689,17.14547 0,6.15471 1.13562,11.90612 3.40689,17.25487 2.27127,5.27546 5.42164,9.89221 9.45131,13.84882 4.02967,3.9566 8.82861,7.07008 14.39688,9.34146 5.64154,2.19812 11.83258,3.29665 18.57312,3.29665 6.66728,0 12.82125,-1.09853 18.46279,-3.29665 5.64154,-2.27138 10.47754,-5.38486 14.50721,-9.34146 4.10294,-3.95661 7.29037,-8.57336 9.56164,-13.84882 2.27127,-5.34875 3.40688,-11.10016 3.40688,-17.25487 0,-6.15473 -1.13561,-11.87 -3.40688,-17.14547 -2.27127,-5.34874 -5.4587,-10.00162 -9.56164,-13.95823 -4.02967,-3.9566 -8.86567,-7.03395 -14.50721,-9.23206 -5.64154,-2.27139 -11.79551,-3.4075 -18.46279,-3.4075 z m -102.31688,2.30911 v 82.8683 h 21.54016 v -32.53176 h 23.62901 v -18.24532 h -23.62901 v -13.84736 h 25.93705 v -18.24386 z m 161.88294,0 v 82.8683 h 21.54017 V 327.9242 l 20.55163,31.87243 h 26.81525 l -26.0459,-33.96127 c 5.93461,-1.39214 10.40442,-4.03008 13.40836,-7.91341 3.0772,-3.9566 4.61459,-9.08502 4.61459,-15.38628 0,-3.51698 -0.5856,-6.81403 -1.75787,-9.89139 -1.099,-3.07736 -2.78463,-5.78902 -5.0559,-8.13367 -2.198,-2.34465 -5.01778,-4.17602 -8.46131,-5.4949 -3.44354,-1.39213 -7.47305,-2.08738 -12.08886,-2.08738 z m 88.24951,0 -14.06738,82.8683 h 21.43131 l 7.14328,-47.69924 18.57312,47.69924 h 8.57164 l 19.56311,-47.69924 7.14328,47.69924 h 21.42984 l -14.06738,-82.8683 h -21.31951 l -16.48574,44.18086 -16.59459,-44.18086 z m -66.70934,16.59554 h 4.0659 c 4.24947,0 7.51102,0.87882 9.78229,2.63731 2.27127,1.75849 3.40689,4.28657 3.40689,7.58374 0,3.29717 -1.13562,5.82525 -3.40689,7.58374 -2.27127,1.7585 -5.53282,2.63732 -9.78229,2.63732 h -4.0659 z m -81.10623,1.97798 c 3.15047,0 6.11848,0.5854 8.90262,1.75773 2.8574,1.09906 5.34805,2.67459 7.47279,4.72616 2.198,2.05157 3.91922,4.46979 5.16475,7.25408 1.24554,2.78427 1.8682,5.82548 1.8682,9.12266 0,3.29716 -0.62266,6.33692 -1.8682,9.1212 -1.24553,2.78427 -2.96675,5.2025 -5.16475,7.25407 -2.12474,2.05158 -4.61539,3.66324 -7.47279,4.83557 -2.78414,1.09905 -5.75215,1.64978 -8.90262,1.64978 -3.15047,0 -6.15408,-0.55073 -9.01148,-1.64978 -2.78414,-1.17233 -5.2392,-2.78399 -7.36393,-4.83557 -2.12474,-2.05157 -3.8089,-4.4698 -5.05443,-7.25407 -1.24553,-2.78428 -1.8682,-5.82404 -1.8682,-9.1212 0,-3.29718 0.62267,-6.33839 1.8682,-9.12266 1.24553,-2.78429 2.92969,-5.20251 5.05443,-7.25408 2.12473,-2.05157 4.57979,-3.6271 7.36393,-4.72616 2.8574,-1.17233 5.86101,-1.75773 9.01148,-1.75773 z"
           transform="matrix(0.99580052,0,0,1.0042172,126.2064,-86.590916)" />
      </g>
      <path
         d="m 649.27281,86.641502 -32.72754,86.705568 h 23.833 l 5.13135,-15.06445 h 31.92774 l 5.13134,15.06445 h 23.83301 L 673.67564,86.641502 Z m 12.20068,25.643558 10.03564,28.86328 h -20.06982 z"
         style="font-weight:bold;font-size:114.511px;font-family:Futura;-inkscape-font-specification:'Futura Bold';fill:none;fill-opacity:1;stroke:#af54fe;stroke-width:1.551;stroke-dasharray:none;stroke-opacity:1"
         id="path378" />
      <rect
         style="fill:none;fill-opacity:1;stroke:#af54fe;stroke-width:1.551;stroke-dasharray:none;stroke-dashoffset:0;stroke-opacity:1"
         id="rect378"
         width="22.349119"
         height="86.705574"
         x="716.20886"
         y="86.641502" />
    </g>
  </g>
</svg>
