<svg xmlns="http://www.w3.org/2000/svg" xmlns:xlink="http://www.w3.org/1999/xlink" width="500" zoomAndPan="magnify" viewBox="0 0 375 374.999991" height="500" preserveAspectRatio="xMidYMid meet" version="1.0"><defs><g/><clipPath id="92c75e19f9"><path d="M 290 138 L 333 138 L 333 237 L 290 237 Z M 290 138 " clip-rule="nonzero"/></clipPath><clipPath id="9298b1b58d"><path d="M 332.1875 138.199219 L 353.855469 220.132812 L 290.777344 236.816406 L 269.105469 154.882812 Z M 332.1875 138.199219 " clip-rule="nonzero"/></clipPath><clipPath id="42c1694c9f"><path d="M 332.230469 138.191406 L 353.898438 220.121094 L 290.816406 236.804688 L 269.148438 154.871094 Z M 332.230469 138.191406 " clip-rule="nonzero"/></clipPath><clipPath id="48da213b2b"><path d="M 332.230469 138.191406 L 353.898438 220.121094 L 290.816406 236.804688 L 269.148438 154.871094 Z M 332.230469 138.191406 " clip-rule="nonzero"/></clipPath></defs><rect x="-37.5" width="450" fill="#ffffff" y="-37.499999" height="449.999989" fill-opacity="1"/><g fill="#000000" fill-opacity="1"><g transform="translate(70.856902, 211.875)"><g><path d="M 29.25 0 L -2.859375 0 L -1.390625 -7.515625 L 20.03125 -35.484375 L 5.15625 -35.484375 L 7.234375 -45.390625 L 37.859375 -45.390625 L 36.234375 -37.796875 L 14.5 -9.90625 L 31.359375 -9.90625 Z M 29.25 0 "/></g></g></g><g fill="#000000" fill-opacity="1"><g transform="translate(98.779763, 211.875)"><g><path d="M 26.640625 -8.515625 L 12.734375 -8.515625 L 8.84375 0 L -3.75 0 L 19.34375 -45.390625 L 34.96875 -45.390625 L 38.78125 0 L 26.953125 0 Z M 17.171875 -18.203125 L 26.265625 -18.203125 L 25.734375 -31.359375 L 25.6875 -34.03125 C 25.6875 -35.582031 25.722656 -36.9375 25.796875 -38.09375 C 25.304688 -36.320312 24.675781 -34.609375 23.90625 -32.953125 Z M 17.171875 -18.203125 "/></g></g></g><g fill="#000000" fill-opacity="1"><g transform="translate(135.397616, 211.875)"><g><path d="M 38.84375 -31.796875 C 38.84375 -26.578125 37.066406 -22.484375 33.515625 -19.515625 C 29.960938 -16.546875 25.101562 -15.0625 18.9375 -15.0625 L 16.265625 -15.0625 L 13.171875 0 L 1.03125 0 L 10.625 -45.390625 L 22.203125 -45.390625 C 27.566406 -45.390625 31.679688 -44.210938 34.546875 -41.859375 C 37.410156 -39.515625 38.84375 -36.160156 38.84375 -31.796875 Z M 18.4375 -25 L 20.40625 -25 C 22.289062 -25 23.8125 -25.601562 24.96875 -26.8125 C 26.125 -28.019531 26.703125 -29.554688 26.703125 -31.421875 C 26.703125 -32.640625 26.328125 -33.617188 25.578125 -34.359375 C 24.835938 -35.109375 23.816406 -35.484375 22.515625 -35.484375 L 20.6875 -35.484375 Z M 18.4375 -25 "/></g></g></g><g fill="#000000" fill-opacity="1"><g transform="translate(168.661686, 211.875)"><g><path d="M 41.515625 -28.21875 C 41.515625 -22.425781 40.488281 -17.398438 38.4375 -13.140625 C 36.394531 -8.890625 33.421875 -5.632812 29.515625 -3.375 C 25.609375 -1.125 20.988281 0 15.65625 0 L 1.03125 0 L 10.625 -45.390625 L 23.53125 -45.390625 C 29.25 -45.390625 33.675781 -43.894531 36.8125 -40.90625 C 39.945312 -37.914062 41.515625 -33.6875 41.515625 -28.21875 Z M 17.484375 -10.0625 C 19.753906 -10.0625 21.785156 -10.785156 23.578125 -12.234375 C 25.367188 -13.679688 26.757812 -15.742188 27.75 -18.421875 C 28.75 -21.109375 29.25 -24.171875 29.25 -27.609375 C 29.25 -30.191406 28.6875 -32.148438 27.5625 -33.484375 C 26.445312 -34.816406 24.890625 -35.484375 22.890625 -35.484375 L 20.6875 -35.484375 L 15.34375 -10.0625 Z M 17.484375 -10.0625 "/></g></g></g><g fill="#000000" fill-opacity="1"><g transform="translate(205.807455, 211.875)"><g><path d="M 27.859375 -46.109375 C 33.234375 -46.109375 37.414062 -44.570312 40.40625 -41.5 C 43.40625 -38.425781 44.90625 -34.132812 44.90625 -28.625 C 44.90625 -23.125 43.875 -18.085938 41.8125 -13.515625 C 39.75 -8.953125 36.90625 -5.453125 33.28125 -3.015625 C 29.664062 -0.585938 25.46875 0.625 20.6875 0.625 C 15.113281 0.625 10.8125 -0.914062 7.78125 -4 C 4.75 -7.082031 3.234375 -11.367188 3.234375 -16.859375 C 3.234375 -22.347656 4.296875 -27.390625 6.421875 -31.984375 C 8.554688 -36.578125 11.460938 -40.078125 15.140625 -42.484375 C 18.816406 -44.898438 23.054688 -46.109375 27.859375 -46.109375 Z M 32.640625 -28.5 C 32.640625 -30.863281 32.140625 -32.710938 31.140625 -34.046875 C 30.148438 -35.378906 28.710938 -36.046875 26.828125 -36.046875 C 24.773438 -36.046875 22.890625 -35.175781 21.171875 -33.4375 C 19.453125 -31.695312 18.082031 -29.304688 17.0625 -26.265625 C 16.039062 -23.222656 15.53125 -20.109375 15.53125 -16.921875 C 15.53125 -11.910156 17.597656 -9.40625 21.734375 -9.40625 C 23.703125 -9.40625 25.53125 -10.265625 27.21875 -11.984375 C 28.90625 -13.703125 30.226562 -16.019531 31.1875 -18.9375 C 32.15625 -21.851562 32.640625 -25.039062 32.640625 -28.5 Z M 32.640625 -28.5 "/></g></g></g><g fill="#000000" fill-opacity="1"><g transform="translate(246.307006, 211.875)"><g><path d="M 27.359375 -35.984375 C 25.117188 -35.984375 23.097656 -35.175781 21.296875 -33.5625 C 19.492188 -31.945312 18.082031 -29.722656 17.0625 -26.890625 C 16.039062 -24.054688 15.53125 -20.984375 15.53125 -17.671875 C 15.53125 -14.890625 16.109375 -12.816406 17.265625 -11.453125 C 18.421875 -10.085938 20.085938 -9.40625 22.265625 -9.40625 C 23.984375 -9.40625 25.722656 -9.617188 27.484375 -10.046875 C 29.242188 -10.472656 31.3125 -11.191406 33.6875 -12.203125 L 33.6875 -2.171875 C 29.488281 -0.304688 24.9375 0.625 20.03125 0.625 C 14.644531 0.625 10.5 -0.910156 7.59375 -3.984375 C 4.6875 -7.054688 3.234375 -11.410156 3.234375 -17.046875 C 3.234375 -22.554688 4.28125 -27.609375 6.375 -32.203125 C 8.476562 -36.796875 11.335938 -40.257812 14.953125 -42.59375 C 18.566406 -44.9375 22.703125 -46.109375 27.359375 -46.109375 C 32.835938 -46.109375 37.816406 -44.753906 42.296875 -42.046875 L 37.703125 -32.578125 C 35.773438 -33.710938 34.003906 -34.5625 32.390625 -35.125 C 30.773438 -35.695312 29.097656 -35.984375 27.359375 -35.984375 Z M 27.359375 -35.984375 "/></g></g></g><g clip-path="url(#92c75e19f9)"><g clip-path="url(#9298b1b58d)"><g clip-path="url(#42c1694c9f)"><g clip-path="url(#48da213b2b)"><path fill="#ffcd05" d="M 310.097656 191.339844 L 314.597656 208.429688 L 332.234375 138.203125 L 311.273438 176.375 L 306.394531 157.542969 L 290.8125 236.792969 Z M 310.097656 191.339844 " fill-opacity="1" fill-rule="nonzero"/></g></g></g></g></svg>