<svg xmlns="http://www.w3.org/2000/svg" xmlns:xlink="http://www.w3.org/1999/xlink" width="500" zoomAndPan="magnify" viewBox="0 0 375 374.999991" height="500" preserveAspectRatio="xMidYMid meet" version="1.0"><defs><clipPath id="a6397613af"><path d="M 189.386719 0 C 84.792969 0 0 84.792969 0 189.386719 C 0 293.984375 84.792969 378.773438 189.386719 378.773438 C 293.984375 378.773438 378.773438 293.984375 378.773438 189.386719 C 378.773438 84.792969 293.984375 0 189.386719 0 Z M 189.386719 0 " clip-rule="nonzero"/></clipPath><clipPath id="f7ce3a5e58"><path d="M 131 48 L 248 48 L 248 326 L 131 326 Z M 131 48 " clip-rule="nonzero"/></clipPath><clipPath id="adf303cd54"><path d="M 247.113281 48.824219 L 308.09375 279.398438 L 131.902344 325.996094 L 70.921875 95.421875 Z M 247.113281 48.824219 " clip-rule="nonzero"/></clipPath><clipPath id="d468e1eb60"><path d="M 247.230469 48.796875 L 308.207031 279.367188 L 131.289062 326.15625 L 70.3125 95.585938 Z M 247.230469 48.796875 " clip-rule="nonzero"/></clipPath></defs><g clip-path="url(#a6397613af)"><rect x="-37.5" width="450" fill="#ffcd05" y="-37.499999" height="449.999989" fill-opacity="1"/></g><g clip-path="url(#f7ce3a5e58)"><g clip-path="url(#adf303cd54)"><g clip-path="url(#d468e1eb60)"><path fill="#ffffff" d="M 185.402344 198.304688 L 198.082031 246.421875 L 247.238281 48.832031 L 188.644531 156.195312 L 174.910156 103.167969 L 131.535156 326.164062 Z M 185.402344 198.304688 " fill-opacity="1" fill-rule="nonzero"/></g></g></g></svg>